<?xml version="1.0" encoding="UTF-8"?>
<svg xmlns="http://www.w3.org/2000/svg" viewBox="0 0 64 64" width="64" height="64">
  <defs>
    <linearGradient id="bg" x1="0" y1="0" x2="1" y2="1">
      <stop offset="0%" stop-color="#0f172a"/>
      <stop offset="50%" stop-color="#1e1b4b"/>
      <stop offset="100%" stop-color="#172554"/>
    </linearGradient>
    <linearGradient id="meteor" x1="0" y1="0" x2="1" y2="1">
      <stop offset="0%" stop-color="#fbbf24"/>
      <stop offset="50%" stop-color="#fb7185"/>
      <stop offset="100%" stop-color="#a78bfa"/>
    </linearGradient>
    <linearGradient id="cloud" x1="0" y1="0" x2="0" y2="1">
      <stop offset="0%" stop-color="#ffffff" stop-opacity="0.95"/>
      <stop offset="100%" stop-color="#e0e7ff" stop-opacity="0.85"/>
    </linearGradient>
  </defs>
  <rect width="64" height="64" rx="14" fill="url(#bg)"/>
  <g fill="url(#cloud)">
    <ellipse cx="22" cy="44" rx="10" ry="7"/>
    <ellipse cx="34" cy="42" rx="12" ry="8"/>
    <ellipse cx="44" cy="45" rx="8" ry="6"/>
    <rect x="14" y="44" width="36" height="6" rx="3"/>
  </g>
  <line x1="50" y1="10" x2="24" y2="32" stroke="url(#meteor)" stroke-width="2.5" stroke-linecap="round" opacity="0.75"/>
  <path d="M50 8 L52.5 14 L58 16 L52.5 18 L50 24 L47.5 18 L42 16 L47.5 14 Z" fill="url(#meteor)"/>
  <circle cx="14" cy="14" r="1.2" fill="#ffffff" opacity="0.85"/>
  <circle cx="38" cy="12" r="1" fill="#ffffff" opacity="0.7"/>
</svg>
